<svg xmlns="http://www.w3.org/2000/svg" xmlns:xlink="http://www.w3.org/1999/xlink" viewBox="0 0 24 24">
  <defs>
    <path id="a" d="M0 0h24v24H0z"/>
  </defs>
  <g fill="none" fill-rule="evenodd">
    <mask id="b" fill="#fff">
      <use xlink:href="#a"/>
    </mask>
    <use xlink:href="#a" fill="#FFF" fill-opacity="0"/>
    <path fill="#00497A" d="M12 2.25c5.3847763 0 9.75 4.36522369 9.75 9.75 0 5.3847763-4.3652237 9.75-9.75 9.75-5.38477631 0-9.75-4.3652237-9.75-9.75 0-5.38477631 4.36522369-9.75 9.75-9.75Zm0 1.5c-4.55634919 0-8.25 3.69365081-8.25 8.25 0 4.5563492 3.69365081 8.25 8.25 8.25 4.5563492 0 8.25-3.6936508 8.25-8.25 0-4.55634919-3.6936508-8.25-8.25-8.25Zm.75 3.71052632V11.249l3.7894737.001v1.5L12.75 12.749v3.7904737h-1.5V12.749l-3.78947368.001v-1.5L11.25 11.249V7.46052632h1.5Z" mask="url(#b)"/>
  </g>
</svg>
