<?xml version="1.0" encoding="UTF-8"?>
<svg width="24px" height="24px" viewBox="0 0 24 24" version="1.1" xmlns="http://www.w3.org/2000/svg" xmlns:xlink="http://www.w3.org/1999/xlink">
    <title>CC3942F2-90B2-4E94-AADC-715CECF64617</title>
    <defs>
        <rect id="path-1" x="0" y="0" width="24" height="24"></rect>
    </defs>
    <g id="200720" stroke="none" stroke-width="1" fill="none" fill-rule="evenodd">
        <g id="TP.io---Documentation---Icons" transform="translate(-444.000000, -181.000000)">
            <g id="Small---24-x-24px" transform="translate(208.000000, 141.000000)">
                <g id="Icons/Guideline-Preview" transform="translate(176.000000, 0.000000)">
                    <g id="Add" transform="translate(60.000000, 40.000000)">
                        <mask id="mask-2" fill="white">
                            <use xlink:href="#path-1"></use>
                        </mask>
                        <use id="Mask" fill-opacity="0" fill="#FFFFFF" xlink:href="#path-1"></use>
                        <path d="M12,2.25 C17.3847763,2.25 21.75,6.61522369 21.75,12 C21.75,17.3847763 17.3847763,21.75 12,21.75 C6.61522369,21.75 2.25,17.3847763 2.25,12 C2.25,6.61522369 6.61522369,2.25 12,2.25 Z M12,3.75 C7.44365081,3.75 3.75,7.44365081 3.75,12 C3.75,16.5563492 7.44365081,20.25 12,20.25 C16.5563492,20.25 20.25,16.5563492 20.25,12 C20.25,7.44365081 16.5563492,3.75 12,3.75 Z M12.75,7.46052632 L12.75,11.249 L16.5394737,11.25 L16.5394737,12.75 L12.75,12.749 L12.75,16.5394737 L11.25,16.5394737 L11.25,12.749 L7.46052632,12.75 L7.46052632,11.25 L11.25,11.249 L11.25,7.46052632 L12.75,7.46052632 Z" id="Combined-Shape" fill="#00497A" mask="url(#mask-2)"></path>
                    </g>
                </g>
            </g>
        </g>
    </g>
</svg>